<svg width="1659" height="232" viewBox="0 0 1659 232" fill="none" xmlns="http://www.w3.org/2000/svg">
<path d="M359.749 185.368C350.561 185.368 342.026 184.379 334.202 182.431C326.378 180.453 319.552 177.661 313.75 173.968C307.948 170.304 303.406 165.738 300.176 160.3C296.947 154.833 295.319 148.551 295.319 141.397C295.319 140.67 295.319 139.972 295.319 139.245C295.319 138.518 295.398 137.908 295.556 137.355H330.684C330.684 137.704 330.684 138.111 330.684 138.576C330.684 139.013 330.684 139.42 330.684 139.797C330.842 144.102 332.286 147.592 335.043 150.267C337.773 152.943 341.422 154.862 345.938 156.025C350.453 157.188 355.232 157.77 360.219 157.77C364.895 157.77 369.463 157.421 373.899 156.694C378.336 155.967 382.063 154.542 385.032 152.39C388.026 150.238 389.521 147.388 389.521 143.811C389.521 139.332 387.735 136.046 384.191 133.895C380.648 131.743 375.765 130.056 369.542 128.806C363.32 127.555 356.336 126.13 348.591 124.501C342.131 123.25 335.961 121.651 330.054 119.674C324.173 117.696 318.87 115.166 314.196 112.025C309.523 108.884 305.795 104.871 303.064 99.9568C300.308 95.0423 298.942 88.9066 298.942 81.5777C298.942 73.9006 300.465 67.2694 303.537 61.7151C306.609 56.1607 310.967 51.6235 316.612 48.0474C322.256 44.4706 328.925 41.8239 336.592 40.1375C344.258 38.4509 352.53 37.5779 361.403 37.5779C369.646 37.5779 377.391 38.4216 384.665 40.1375C391.936 41.8239 398.238 44.3535 403.54 47.6398C408.869 50.9554 413.098 55.1139 416.247 60.1162C419.397 65.1174 420.975 70.7595 420.975 77.0116C420.975 78.0873 420.975 79.0766 420.975 79.9485C420.975 80.8511 420.895 81.5485 420.736 82.1017H385.634V80.2112C385.634 76.8085 384.534 74.0462 382.354 71.8941C380.173 69.7413 377.18 68.0839 373.401 66.9211C369.594 65.7573 365.289 65.1759 360.43 65.1759C358.015 65.1759 355.26 65.3508 352.187 65.6998C349.114 66.0481 346.176 66.6881 343.339 67.5892C340.503 68.4918 338.245 69.7413 336.565 71.3409C334.885 72.9409 334.019 75.0048 334.019 77.5059C334.019 80.734 335.541 83.2644 338.613 85.1549C341.685 87.0454 345.754 88.4986 350.848 89.5747C355.942 90.6507 361.455 91.8146 367.442 93.0651C374.214 94.6637 381.014 96.3222 387.787 98.037C394.563 99.7244 400.785 102.022 406.429 104.871C412.074 107.721 416.51 111.851 419.739 117.202C422.968 122.553 424.57 129.736 424.57 138.664C424.57 147.243 422.996 154.542 419.843 160.532C416.694 166.523 412.23 171.351 406.402 175.015C400.602 178.679 393.722 181.325 385.818 182.925C377.997 184.553 369.279 185.368 359.749 185.368Z" fill="black"/>
<path d="M497.036 185.365C481.861 185.365 470.123 181.061 461.8 172.482C453.48 163.903 449.331 150.41 449.331 131.972V41.0359H484.696V125.516C484.696 130.722 485.246 135.055 486.402 138.516C487.53 142.005 489.239 144.826 491.496 146.978C493.756 149.13 496.458 150.701 499.608 151.66C502.76 152.62 506.356 153.144 510.374 153.144C516.174 153.144 521.479 151.718 526.23 148.839C530.982 145.99 534.816 142.005 537.73 136.916C540.644 131.827 542.087 126.04 542.087 119.613V41.0066H577.69V182.108H548.624L545.973 160.647H544.267C540.381 166.201 536.024 170.796 531.193 174.46C526.334 178.124 520.981 180.858 515.097 182.632C509.19 184.464 503.179 185.365 497.036 185.365Z" fill="black"/>
<path d="M609.678 231.23V41.0406H638.505L641.658 61.4262H643.364C648.378 52.8478 654.704 46.7695 662.373 43.1924C670.039 39.6152 678.386 37.8418 687.446 37.8418C699.233 37.8418 709.445 40.43 718.083 45.635C726.721 50.8121 733.389 58.8676 738.065 69.7722C742.737 80.6782 745.073 94.6374 745.073 111.62C745.073 128.254 742.685 142.039 737.933 152.945C733.182 163.85 726.589 171.992 718.19 177.343C709.788 182.694 699.942 185.399 688.653 185.399C683.009 185.399 677.548 184.672 672.295 183.247C667.045 181.822 662.242 179.611 657.881 176.674C653.524 173.737 649.794 170.102 646.748 165.798H645.305V231.259H609.678V231.23ZM677.258 153.438C684.532 153.438 690.491 151.956 695.191 149.018C699.863 146.081 703.33 141.603 705.614 135.612C707.871 129.621 708.999 122.525 708.999 114.296V108.945C708.999 100.366 707.871 93.1242 705.614 87.2219C703.354 81.3181 699.89 76.8972 695.191 73.9318C690.491 70.9934 684.452 69.5109 677.022 69.5109C670.091 69.5109 664.211 71.1105 659.456 74.3386C654.704 77.5664 651.057 82.1611 648.562 88.1512C646.042 94.1428 644.807 101.267 644.807 109.469V113.22C644.807 119.297 645.544 124.881 646.987 129.97C648.43 135.059 650.503 139.363 653.157 142.853C655.808 146.343 659.117 148.989 663.079 150.763C667.045 152.566 671.772 153.438 677.258 153.438Z" fill="black"/>
<path d="M837.773 185.376C822.439 185.376 809.392 182.73 798.654 177.466C787.915 172.202 779.724 164.089 774.08 153.184C768.435 142.278 765.598 128.406 765.598 111.598C765.598 94.7889 768.408 80.9167 774.08 70.0118C779.724 59.1061 787.836 51.0221 798.419 45.7293C808.998 40.4655 821.785 37.8191 836.801 37.8191C851.505 37.8191 863.974 40.4069 874.214 45.6133C884.454 50.789 892.223 58.6993 897.449 69.3426C902.699 79.987 905.325 93.3345 905.325 109.446V120.438H802.17C802.488 128.669 804.035 135.503 806.766 140.969C809.496 146.437 813.514 150.421 818.764 152.922C824.017 155.423 830.499 156.673 838.272 156.673C842.13 156.673 845.857 156.179 849.404 155.19C852.948 154.201 856.177 152.689 859.091 150.624C862.005 148.56 864.42 146.03 866.365 142.976C868.307 139.952 869.355 136.461 869.514 132.507H905.118C905.118 140.737 903.46 148.153 900.155 154.783C896.847 161.413 892.279 166.939 886.475 171.417C880.672 175.895 873.636 179.327 865.393 181.741C857.149 184.155 847.961 185.376 837.773 185.376ZM802.672 96.0394H868.044C868.044 91.0372 867.282 86.6456 865.735 82.895C864.185 79.1433 862.06 76.0023 859.33 73.5011C856.572 71.0011 853.343 69.1681 849.64 68.0053C845.937 66.8415 841.815 66.2601 837.299 66.2601C830.371 66.2601 824.436 67.3654 819.501 69.6053C814.566 71.8437 810.732 75.1878 808.001 79.6672C805.243 84.1737 803.457 89.6121 802.672 96.0394Z" fill="black"/>
<path d="M931.5 182.137V41.0359H960.563L963.477 64.097H965.186C966.785 59.2693 969.149 54.791 972.194 50.691C975.267 46.5902 979.022 43.3621 983.458 41.0359C987.895 38.7093 992.934 37.5454 998.606 37.5454C1001.52 37.5454 1004.17 37.8077 1006.59 38.3598C1009 38.8838 1011.1 39.5237 1012.89 40.2503V74.5951H998.845C993.356 74.5951 988.629 75.5259 984.666 77.4163C980.7 79.3057 977.392 81.9814 974.741 85.4718C972.09 88.9612 970.145 93.0327 968.938 97.6859C967.73 102.339 967.128 107.603 967.128 113.505V182.165H931.5V182.137Z" fill="black"/>
<path d="M1078.02 185.363C1069.15 185.363 1061.88 183.85 1056.23 180.797C1050.59 177.772 1046.42 173.236 1043.76 167.245C1041.11 161.254 1039.77 153.78 1039.77 144.852V70.5507H1020.16V41.0337H1041.22L1047.99 1.24658e-06L1075.35 0V41.0337H1103.91V70.5507H1075.35V139.211C1075.35 144.562 1076.34 148.633 1078.37 151.425C1080.39 154.187 1084.22 155.583 1089.87 155.583H1103.91V181.058C1101.81 181.785 1099.24 182.454 1096.17 183.065C1093.1 183.676 1089.94 184.228 1086.71 184.664C1083.51 185.13 1080.62 185.363 1078.02 185.363Z" fill="black"/>
<path d="M1194.26 185.376C1178.93 185.376 1165.88 182.73 1155.14 177.466C1144.41 172.202 1136.21 164.089 1130.57 153.184C1124.93 142.278 1122.09 128.406 1122.09 111.598C1122.09 94.7889 1124.93 80.9167 1130.57 70.0118C1136.21 59.1061 1144.33 51.0221 1154.91 45.7293C1165.49 40.4655 1178.27 37.8191 1193.29 37.8191C1207.97 37.8191 1220.47 40.4069 1230.7 45.6133C1240.95 50.789 1248.71 58.6993 1253.97 69.3426C1259.22 79.987 1261.84 93.3345 1261.84 109.446V120.438H1158.69C1159.01 128.669 1160.55 135.503 1163.28 140.969C1166.01 146.437 1170.03 150.421 1175.28 152.922C1180.53 155.423 1187.02 156.673 1194.79 156.673C1198.68 156.673 1202.37 156.179 1205.92 155.19C1209.47 154.201 1212.69 152.689 1215.61 150.624C1218.52 148.56 1220.94 146.03 1222.88 142.976C1224.82 139.952 1225.87 136.461 1226.03 132.507H1261.63C1261.63 140.737 1259.98 148.153 1256.67 154.783C1253.36 161.413 1248.8 166.939 1242.99 171.417C1237.19 175.895 1230.15 179.327 1221.93 181.741C1213.64 184.155 1204.42 185.376 1194.26 185.376ZM1159.13 96.0394H1224.53C1224.53 91.0372 1223.78 86.6456 1222.23 82.895C1220.7 79.1433 1218.55 76.0023 1215.82 73.5011C1213.06 71.0011 1209.83 69.1681 1206.13 68.0053C1202.4 66.8415 1198.31 66.2601 1193.79 66.2601C1186.86 66.2601 1180.93 67.3654 1175.99 69.6053C1171.06 71.8437 1167.22 75.1878 1164.49 79.6672C1161.73 84.1737 1159.95 89.6121 1159.13 96.0394Z" fill="black"/>
<path d="M1328.19 185.369C1322.54 185.369 1316.89 184.729 1311.22 183.478C1305.57 182.228 1300.53 180.163 1296.1 177.313C1291.67 174.463 1288.06 170.391 1285.34 165.099C1282.58 159.835 1281.21 153.088 1281.21 144.858C1281.21 134.302 1283.47 125.781 1287.99 119.238C1292.51 112.724 1299.04 107.809 1307.6 104.495C1316.16 101.179 1326.29 98.9977 1338 97.9217C1349.71 96.8457 1362.58 96.3221 1376.62 96.3221V88.005C1376.62 83.1773 1375.7 79.1936 1373.84 76.0818C1371.97 72.9415 1369.09 70.4982 1365.12 68.6955C1361.16 66.921 1355.88 66.0195 1349.27 66.0195C1343.46 66.0195 1338.5 66.6887 1334.38 68.0263C1330.26 69.3647 1327.1 71.1088 1324.93 73.2606C1322.75 75.4127 1321.64 77.9138 1321.64 80.7639V83.9921H1286.78C1286.62 82.916 1286.49 82.0145 1286.41 81.3161C1286.33 80.5894 1286.28 79.7172 1286.28 78.6415C1286.28 70.4111 1288.77 63.2279 1293.78 57.0629C1298.8 50.8979 1306.1 46.1579 1315.71 42.8424C1325.32 39.5275 1336.82 37.8694 1350.21 37.8694C1363.6 37.8694 1374.86 39.469 1384 42.6968C1393.11 45.9249 1400.09 50.9271 1404.95 57.7321C1409.78 64.537 1412.23 73.2031 1412.23 83.7597V145.731C1412.23 148.959 1412.98 151.402 1414.53 153.117C1416.05 154.804 1417.98 155.677 1420.24 155.677H1430.39V180.89C1428.61 181.791 1425.8 182.722 1421.91 183.711C1418.02 184.699 1413.5 185.194 1408.33 185.194C1402.35 185.194 1397.44 184.351 1393.55 182.635C1389.67 180.948 1386.65 178.621 1384.47 175.655C1382.3 172.689 1380.72 169.258 1379.75 165.332H1377.81C1374.42 169.258 1370.24 172.806 1365.33 175.917C1360.39 179.058 1354.83 181.413 1348.61 183.013C1342.41 184.554 1335.58 185.369 1328.19 185.369ZM1338.82 156.404C1343.49 156.404 1348.05 155.735 1352.5 154.397C1356.93 153.059 1360.92 151.169 1364.49 148.755C1368.03 146.342 1370.95 143.288 1373.21 139.623C1375.46 135.96 1376.59 131.976 1376.59 127.701V119.936C1364 119.936 1353.25 120.605 1344.38 121.943C1335.51 123.28 1328.68 125.52 1323.93 128.66C1319.18 131.801 1316.79 136.134 1316.79 141.659C1316.79 145.236 1317.76 148.087 1319.7 150.239C1321.64 152.39 1324.29 153.961 1327.68 154.92C1331.07 155.909 1334.8 156.404 1338.82 156.404Z" fill="black"/>
<path d="M1447.06 182.147V41.0456H1476.12L1479.03 62.2456H1480.74C1484.13 56.6912 1488.2 52.0965 1492.97 48.4326C1497.73 44.768 1502.87 42.0931 1508.36 40.3772C1513.84 38.6908 1519.49 37.8175 1525.32 37.8175C1535.17 37.8175 1543.49 39.7372 1550.26 43.576C1557.03 47.4144 1562.2 53.638 1565.75 62.2163H1567.46C1571 56.6619 1575.18 52.0673 1579.93 48.4034C1584.68 44.7388 1589.93 42.0638 1595.68 40.3479C1601.4 38.6616 1607.27 37.7893 1613.25 37.7893C1622.78 37.7893 1630.88 39.592 1637.59 43.1399C1644.28 46.717 1649.48 52.4459 1653.21 60.2976C1656.91 68.1786 1658.77 78.182 1658.77 90.3382V182.089H1622.94V97.0553C1622.94 92.0542 1622.41 87.7493 1621.36 84.1732C1620.31 80.5964 1618.81 77.7459 1616.87 75.5942C1614.93 73.4421 1612.46 71.9303 1609.49 71.0288C1606.5 70.1265 1603.33 69.6904 1599.94 69.6904C1594.61 69.6904 1589.72 71.0862 1585.29 73.8489C1580.85 76.6113 1577.31 80.5671 1574.63 85.6561C1571.98 90.7451 1570.63 96.5325 1570.63 102.959V182.089L1535.27 182.089V97.0557C1535.27 92.0542 1534.69 87.7493 1533.56 84.1725C1532.44 80.5964 1530.86 77.7459 1528.84 75.5942C1526.82 73.4421 1524.4 71.9303 1521.56 71.0288C1518.73 70.1265 1515.47 69.6904 1511.74 69.6904C1506.41 69.6904 1501.53 71.0862 1497.1 73.8489C1492.66 76.6113 1489.14 80.5671 1486.56 85.6561C1484 90.7451 1482.68 96.5325 1482.68 102.959V182.089H1447.06V182.147Z" fill="black"/>
<path d="M191.349 47.3537H242.576V67.8252C242.576 95.5898 220.892 118.03 194.062 118.03H191.349V47.3537ZM118.445 17.6205H191.349V210.87H182.674C129.826 210.87 119.255 172.727 119.255 138.786L118.445 17.6205ZM0 61.3784C0 95.8742 23.8483 108.498 50.4097 112.706H0V211.431H48.514C97.3024 211.431 102.99 188.991 102.99 167.673C102.99 141.586 85.6462 123.361 58.8101 116.345H102.99V17.6205H54.476C5.69417 17.6205 0 40.061 0 61.3784Z" fill="black"/>
</svg>
