<svg width="804" height="254" viewBox="0 0 804 254" fill="none" xmlns="http://www.w3.org/2000/svg">
<path d="M207.773 251.861V155.609H173.788V136.688H261.087V155.609H215.665V159.887C222.43 159.887 227.423 164.001 227.423 172.227V251.861H207.773Z" fill="white"/>
<path d="M273.588 251.861V136.688H292.594V181.112H296.782C300.325 171.569 308.379 164.33 320.459 164.33C336.565 164.33 348.645 177.657 348.645 200.362V251.861H329.478V204.476C329.478 190.49 323.197 183.086 312.727 183.086C300.325 183.086 292.594 193.287 292.594 207.273V251.861H273.588Z" fill="white"/>
<path d="M406.26 254C382.261 254 364.704 236.395 364.704 209.576C364.704 182.757 382.1 164.33 406.099 164.33C428.809 164.33 444.111 181.277 444.111 205.298V213.196H397.884C390.314 213.196 387.576 211.386 387.576 206.45H383.388V212.867C383.388 228.168 392.891 236.889 406.099 236.889C416.085 236.889 423.655 232.117 428.97 222.574L444.111 231.294C436.218 246.267 422.366 254 406.26 254ZM424.943 199.211C424.46 188.022 417.534 180.289 405.615 180.289C394.18 180.289 385.965 187.2 383.871 199.211H424.943Z" fill="white"/>
<path d="M549.311 253.506C517.259 253.506 498.575 229.32 498.575 195.92C498.575 157.09 523.218 134.385 555.271 134.385C580.236 134.385 602.947 148.041 606.49 173.544H585.229C582.652 160.216 568.639 153.471 554.465 153.471C533.043 153.471 518.87 168.772 518.87 194.933C518.87 219.942 532.238 236.23 553.499 236.23C570.572 236.23 582.169 225.7 583.78 210.07H552.211V192.3H602.141V251.861H586.518V236.23H582.33C577.337 245.115 567.029 253.506 549.311 253.506Z" fill="white"/>
<path d="M623.721 251.861V166.633H667.048V183.909H631.613V188.187C638.539 188.187 642.726 190.984 642.726 198.223V251.861H623.721Z" fill="white"/>
<path d="M680.975 251.861V166.633H699.981V251.861H680.975ZM690.478 155.774C683.713 155.774 678.398 151.661 678.398 143.928C678.398 136.359 683.713 132.246 690.478 132.246C697.082 132.246 702.236 136.359 702.236 143.928C702.236 151.661 697.082 155.774 690.478 155.774Z" fill="white"/>
<path d="M754.874 254C732.969 254 717.507 236.066 717.507 209.412C717.507 182.922 732.969 164.33 755.036 164.33C768.887 164.33 777.102 171.569 780.645 181.112H784.833V136.688H804V251.861H784.833V237.218H780.645C776.78 247.912 767.76 254 754.874 254ZM760.995 236.395C774.847 236.395 784.189 226.359 784.189 209.247C784.189 192.136 774.847 182.099 760.995 182.099C746.982 182.099 736.996 192.136 736.996 209.247C736.996 226.852 747.304 236.395 760.995 236.395Z" fill="white"/>
<path d="M0 192.47H33.5194C33.5194 132.855 74.7402 96.2456 139.651 96.2456H173.788V0H139.651C139.651 59.6146 98.2258 96.2456 33.5194 96.2456H0V192.491V192.47Z" fill="white"/>
</svg>
