<svg width="126" height="52" viewBox="0 0 126 52" fill="none" xmlns="http://www.w3.org/2000/svg">
<path d="M34.5526 43.0212V28.989H29.6094V26.2305H42.3071V28.989H35.7006V29.6126C36.6845 29.6126 37.4108 30.2123 37.4108 31.4117V43.0212H34.5526Z" fill="#fff"/>
<path d="M44.125 43.0212V26.2305H46.8895V32.707H47.4987C48.0141 31.3157 49.1855 30.2603 50.9424 30.2603C53.2852 30.2603 55.0425 32.2032 55.0425 35.5135V43.0212H52.2544V36.1131C52.2544 34.0742 51.3409 32.9948 49.8178 32.9948C48.0141 32.9948 46.8895 34.482 46.8895 36.5209V43.0212H44.125Z" fill="#fff"/>
<path d="M63.4234 43.3327C59.9324 43.3327 57.3789 40.7662 57.3789 36.8562C57.3789 32.9463 59.9091 30.2598 63.3997 30.2598C66.7029 30.2598 68.9288 32.7304 68.9288 36.2326V37.3839H62.2051C61.1038 37.3839 60.7057 37.1201 60.7057 36.4005H60.0966V37.3359C60.0966 39.5666 61.4786 40.8379 63.3997 40.8379C64.8523 40.8379 65.9532 40.1426 66.7265 38.7512L68.9288 40.0224C67.7806 42.2052 65.7658 43.3327 63.4234 43.3327ZM66.1406 35.345C66.0705 33.7139 65.0629 32.5865 63.3296 32.5865C61.6661 32.5865 60.4714 33.594 60.1667 35.345H66.1406Z" fill="#fff"/>
<path d="M84.2303 43.261C79.5683 43.261 76.8506 39.7352 76.8506 34.8656C76.8506 29.2047 80.4349 25.8945 85.0973 25.8945C88.7284 25.8945 92.0316 27.8854 92.547 31.6034H89.4545C89.0797 29.6605 87.0416 28.677 84.9799 28.677C81.8642 28.677 79.8025 30.9078 79.8025 34.7217C79.8025 38.3678 81.7469 40.7425 84.8394 40.7425C87.3228 40.7425 89.0096 39.2073 89.2439 36.9285H84.652V34.338H91.9147V43.021H89.6419V40.7425H89.0328C88.3067 42.0378 86.8073 43.261 84.2303 43.261Z" fill="#fff"/>
<path d="M95.0527 43.0208V30.5957H101.355V33.1144H96.2009V33.738C97.2081 33.738 97.8173 34.1458 97.8173 35.2012V43.0208H95.0527Z" fill="#fff"/>
<path d="M103.381 43.0204V30.5953H106.145V43.0204H103.381ZM104.763 29.0122C103.779 29.0122 103.006 28.4125 103.006 27.2851C103.006 26.1817 103.779 25.582 104.763 25.582C105.724 25.582 106.473 26.1817 106.473 27.2851C106.473 28.4125 105.724 29.0122 104.763 29.0122Z" fill="#fff"/>
<path d="M114.13 43.3332C110.943 43.3332 108.694 40.7186 108.694 36.8327C108.694 32.9708 110.943 30.2603 114.153 30.2603C116.168 30.2603 117.363 31.3157 117.878 32.707H118.487V26.2305H121.275V43.0212H118.487V40.8864H117.878C117.316 42.4456 116.004 43.3332 114.13 43.3332ZM115.02 40.7667C117.035 40.7667 118.394 39.3034 118.394 36.8087C118.394 34.3141 117.035 32.8509 115.02 32.8509C112.981 32.8509 111.529 34.3141 111.529 36.8087C111.529 39.3753 113.028 40.7667 115.02 40.7667Z" fill="#fff"/>
<path d="M4.33105 34.3626H9.20655C9.20655 25.6715 15.2022 20.3343 24.6437 20.3343H29.6089V6.30273H24.6437C24.6437 14.9939 18.6182 20.3343 9.20655 20.3343H4.33105V34.3658V34.3626Z" fill="#fff"/>
</svg>
